<?xml version="1.0" standalone="no"?>
<!DOCTYPE svg PUBLIC "-//W3C//DTD SVG 20010904//EN"
 "http://www.w3.org/TR/2001/REC-SVG-20010904/DTD/svg10.dtd">
<svg version="1.0" xmlns="http://www.w3.org/2000/svg"
 width="656.000000pt" height="656.000000pt" viewBox="0 0 656.000000 656.000000"
 preserveAspectRatio="xMidYMid meet">
<metadata>
Created by potrace 1.11, written by Peter Selinger 2001-2013
</metadata>
<g transform="translate(0.000000,656.000000) scale(0.100000,-0.100000)"
fill="#000000" stroke="none">
<path d="M3220 6484 c-30 -8 -66 -16 -80 -18 -14 -2 -45 -9 -70 -16 -25 -7
-56 -14 -70 -15 -14 -2 -77 -15 -140 -29 -63 -14 -126 -27 -140 -30 -14 -2
-47 -9 -75 -16 -27 -6 -113 -24 -190 -40 -77 -16 -234 -50 -348 -75 -114 -25
-222 -47 -240 -50 -18 -3 -48 -10 -67 -15 -38 -10 -84 -19 -115 -24 -57 -8
-111 -56 -118 -106 -3 -20 6 -82 27 -185 3 -11 18 -91 35 -178 17 -87 33 -168
36 -180 3 -12 7 -33 9 -47 2 -14 7 -36 10 -50 3 -14 8 -36 10 -50 2 -14 7 -36
10 -50 3 -14 8 -36 10 -50 3 -14 10 -50 16 -80 6 -30 13 -66 15 -80 3 -14 7
-36 10 -50 3 -14 7 -36 10 -50 5 -32 47 -246 60 -300 3 -14 7 -38 10 -55 3
-16 19 -95 35 -175 16 -80 32 -162 36 -184 3 -21 8 -48 10 -60 3 -11 7 -32 10
-46 3 -13 7 -26 9 -28 2 -2 -6 -20 -17 -40 -104 -185 -246 -436 -269 -475 -16
-26 -29 -49 -29 -51 0 -4 -81 -147 -100 -176 -6 -8 -18 -32 -27 -52 -10 -21
-21 -38 -25 -38 -5 0 -8 -4 -8 -10 0 -7 -103 -192 -200 -360 -5 -8 -56 -98
-113 -200 -131 -233 -305 -541 -414 -732 -104 -184 -116 -210 -108 -256 4 -28
51 -100 85 -132 3 -3 32 -39 65 -80 32 -41 62 -77 65 -80 3 -3 35 -41 70 -85
35 -44 67 -82 70 -85 3 -3 23 -27 45 -55 22 -27 47 -59 56 -70 9 -11 44 -54
78 -95 34 -41 74 -91 90 -110 16 -19 51 -62 77 -95 27 -33 51 -62 54 -65 4 -4
147 -180 190 -234 8 -10 22 -26 30 -35 8 -9 51 -62 95 -116 44 -55 82 -102 85
-105 4 -4 123 -149 143 -175 24 -31 55 -63 77 -78 23 -16 107 -17 1283 -17
1058 0 1262 2 1285 14 29 15 66 54 122 126 18 25 41 52 49 61 9 9 23 25 31 36
42 52 136 169 140 173 3 3 25 30 50 60 25 30 53 64 62 75 22 26 252 310 287
353 14 19 35 43 46 55 11 13 67 81 125 152 57 72 107 132 110 135 3 3 30 37
61 75 31 39 66 81 78 95 11 14 24 30 29 35 4 6 49 61 100 124 51 63 93 124 94
135 4 53 -3 80 -40 143 -22 37 -52 91 -67 118 -16 28 -101 178 -190 335 -89
157 -188 332 -221 390 -32 57 -64 114 -71 125 -7 11 -16 29 -22 40 -5 12 -32
60 -60 107 -28 48 -51 89 -51 91 0 3 -18 35 -40 71 -22 36 -40 70 -40 76 0 5
-4 10 -10 10 -5 0 -10 4 -10 10 0 5 -22 48 -50 96 -27 48 -50 88 -50 90 0 4
-85 151 -100 174 -6 8 -13 22 -17 30 -4 8 -61 110 -126 225 -140 246 -148 262
-137 291 5 12 12 41 15 65 4 24 8 46 10 49 2 3 6 21 9 40 3 19 10 60 17 90 6
30 12 65 14 77 2 12 7 36 11 55 10 42 9 35 19 93 4 28 9 55 11 60 1 6 12 57
23 115 12 58 24 116 26 130 3 14 8 41 11 60 2 19 9 50 14 70 5 19 11 49 14 65
12 71 17 95 37 190 11 55 23 111 25 125 2 14 7 36 10 50 3 14 8 36 10 50 3 14
11 60 20 103 8 42 17 87 20 100 2 12 6 33 9 47 3 14 8 41 11 60 4 19 9 44 11
55 12 54 19 91 17 103 -1 6 -2 21 -3 31 -2 37 -48 78 -104 92 -28 8 -56 14
-62 14 -5 1 -19 4 -30 8 -11 3 -40 9 -65 12 -24 4 -48 9 -52 12 -5 2 -21 6
-36 9 -15 3 -80 16 -146 30 -65 14 -128 28 -140 30 -11 2 -30 6 -41 8 -11 2
-56 12 -100 21 -44 9 -87 19 -95 21 -8 2 -69 15 -135 29 -66 14 -129 28 -140
30 -257 56 -315 68 -338 71 -16 2 -32 6 -37 9 -4 3 -25 7 -46 11 -22 3 -55 9
-74 14 -65 17 -95 17 -150 4z m-172 -292 c-8 -19 -142 -257 -147 -262 -3 -3
-16 -25 -29 -50 -12 -25 -37 -70 -55 -101 -50 -89 -118 -209 -150 -269 -16
-30 -37 -63 -45 -72 -8 -10 -12 -18 -7 -18 4 0 3 -6 -3 -12 -6 -7 -65 -110
-131 -228 -66 -118 -125 -222 -131 -230 -6 -8 -14 -25 -20 -37 -5 -12 -20 -39
-33 -60 -13 -21 -37 -63 -54 -93 -34 -62 -61 -110 -106 -190 l-31 -54 -22 111
c-22 110 -33 169 -39 208 -2 11 -4 20 -5 20 -1 0 -4 11 -6 25 -2 14 -18 90
-34 170 -16 80 -32 159 -35 175 -6 36 -10 57 -31 160 -9 44 -18 89 -20 100 -2
16 -31 162 -50 250 -2 10 -6 37 -9 60 -4 22 -10 56 -15 75 -19 68 -16 73 60
85 19 3 53 11 75 17 22 6 55 12 73 14 18 2 37 6 43 9 5 4 20 8 32 10 46 6 102
17 108 21 3 2 20 6 37 9 17 3 84 17 149 31 65 14 128 28 141 30 13 3 74 15
135 29 62 13 128 27 147 30 19 3 53 11 75 17 22 6 56 13 75 15 19 3 37 7 39 9
8 7 23 4 19 -4z m552 -6 c14 -2 48 -10 75 -16 28 -6 57 -13 65 -15 49 -10 228
-48 245 -52 11 -2 31 -6 45 -9 14 -2 36 -7 50 -10 14 -4 34 -8 45 -10 11 -1
94 -19 185 -39 174 -39 174 -39 260 -56 59 -11 120 -26 160 -38 14 -4 24 -14
22 -21 -2 -7 -7 -34 -12 -59 -5 -25 -12 -57 -14 -71 -21 -102 -75 -376 -80
-405 -7 -37 -17 -90 -26 -130 -5 -22 -11 -53 -14 -70 -3 -16 -15 -75 -26 -130
-11 -55 -23 -115 -26 -134 -3 -18 -8 -43 -10 -55 -13 -59 -26 -124 -30 -146
-2 -14 -7 -36 -10 -50 -3 -14 -8 -36 -10 -50 -2 -14 -6 -34 -8 -45 -3 -11 -5
-29 -5 -39 -1 -30 -10 -17 -125 189 -58 105 -110 197 -116 205 -5 8 -18 31
-28 50 -10 19 -81 145 -156 280 -76 134 -147 260 -158 280 -11 19 -27 49 -37
65 -10 17 -31 55 -48 85 -16 30 -87 156 -156 279 -70 123 -127 225 -127 228 0
2 10 1 23 -2 12 -3 33 -7 47 -9z m-224 -208 c43 -78 84 -150 89 -160 6 -9 22
-39 36 -65 15 -26 36 -64 47 -83 11 -19 35 -62 53 -95 17 -33 38 -68 47 -77 8
-10 11 -18 6 -18 -5 0 -4 -4 1 -8 6 -4 17 -20 25 -37 8 -16 17 -32 20 -35 3
-3 13 -21 24 -40 10 -19 41 -75 69 -125 28 -49 67 -119 87 -155 169 -302 281
-501 299 -530 11 -19 25 -44 30 -55 5 -11 23 -45 41 -75 41 -69 100 -177 100
-182 0 -2 -477 -4 -1060 -4 l-1060 0 6 21 c4 11 11 22 15 23 5 2 9 7 9 12 0 5
27 57 61 117 34 59 94 167 134 238 41 72 88 155 105 185 17 30 34 63 37 73 3
9 9 17 14 17 5 0 9 4 9 9 0 5 36 73 80 151 44 78 80 146 80 151 0 5 5 9 10 9
6 0 10 5 10 10 0 6 25 53 55 105 30 53 55 98 55 101 0 3 8 18 18 32 11 15 34
56 52 92 19 36 39 72 45 80 7 8 27 44 46 80 18 36 36 67 39 70 3 3 12 18 20
35 8 16 42 77 76 135 33 58 63 113 67 123 3 9 10 17 15 17 5 0 44 -64 88 -142z
m924 -1986 c0 -4 -24 -44 -33 -56 -5 -6 -71 -112 -147 -236 -77 -124 -144
-230 -149 -237 -6 -7 -11 -14 -11 -17 0 -3 -54 -91 -120 -197 -66 -106 -120
-193 -120 -195 0 -1 -18 -30 -40 -63 -22 -33 -40 -64 -40 -70 0 -5 -4 -11 -8
-13 -4 -1 -38 -52 -76 -113 -37 -60 -72 -119 -79 -129 -7 -11 -43 -69 -80
-130 -38 -61 -78 -125 -90 -142 l-21 -31 -96 156 c-53 86 -138 221 -189 301
-50 80 -97 157 -104 173 -6 15 -15 27 -19 27 -4 0 -8 4 -8 9 0 5 -18 37 -40
70 -22 33 -40 63 -40 66 0 3 -5 11 -10 18 -6 7 -51 77 -100 157 -49 80 -94
150 -99 157 -6 7 -11 14 -11 17 0 5 -41 73 -70 116 -81 121 -218 355 -211 359
9 6 2011 9 2011 3z m-2179 -209 c29 -49 56 -89 61 -91 4 -2 8 -7 8 -12 0 -5
54 -95 120 -200 66 -105 120 -196 120 -201 0 -5 5 -9 10 -9 6 0 10 -7 10 -15
0 -8 5 -15 10 -15 6 0 10 -4 10 -10 0 -5 37 -69 83 -142 46 -73 141 -226 212
-341 72 -114 138 -220 147 -235 10 -15 22 -36 28 -47 5 -11 37 -62 70 -114 33
-51 60 -97 60 -102 0 -5 5 -9 10 -9 6 0 10 -4 10 -10 0 -5 13 -31 30 -56 26
-41 28 -50 16 -63 -15 -18 -266 -421 -266 -427 0 -3 -5 -10 -10 -17 -6 -7 -40
-59 -75 -117 -35 -58 -69 -110 -75 -117 -5 -7 -10 -14 -10 -17 0 -2 -61 -102
-137 -222 -75 -121 -141 -228 -147 -239 -6 -11 -23 -38 -37 -60 -49 -74 -201
-320 -221 -355 -11 -19 -35 -57 -53 -85 -18 -27 -37 -58 -42 -68 -9 -17 -15
-13 -54 35 -24 29 -46 55 -49 58 -3 3 -35 41 -70 85 -35 44 -67 82 -70 85 -3
3 -21 25 -40 50 -19 25 -37 47 -40 50 -3 3 -25 30 -50 60 -25 30 -49 60 -55
66 -5 6 -21 26 -35 44 -14 18 -30 38 -35 44 -6 6 -49 58 -95 116 -46 58 -87
107 -90 110 -3 3 -35 41 -70 85 -36 44 -69 85 -75 91 -5 6 -22 26 -37 45 -14
19 -36 45 -47 59 -11 14 -24 30 -28 35 -5 6 -60 73 -124 150 l-115 140 110
196 c61 108 117 204 125 213 7 9 10 16 7 16 -4 0 1 12 12 28 10 15 32 52 49
82 67 122 187 335 193 340 3 3 13 21 24 40 38 73 82 152 136 245 83 145 110
195 110 204 0 5 4 11 8 13 4 2 27 37 49 79 23 42 59 105 80 140 20 35 36 67
35 72 -1 4 2 7 8 7 5 0 10 4 10 9 0 4 33 66 74 137 41 71 90 157 108 192 18
34 36 62 40 62 3 0 30 -39 59 -87z m2422 45 c13 -24 38 -68 55 -98 16 -30 62
-111 101 -178 39 -68 71 -128 71 -133 0 -5 5 -9 12 -9 6 0 9 -3 6 -6 -4 -3 5
-22 18 -41 13 -20 24 -42 24 -49 0 -8 4 -14 9 -14 5 0 11 -8 14 -17 4 -10 18
-38 33 -63 15 -25 38 -65 52 -90 13 -25 32 -58 42 -75 10 -16 29 -50 42 -75
14 -25 48 -85 77 -134 28 -49 51 -90 51 -92 0 -1 33 -60 74 -131 40 -70 84
-148 98 -173 159 -282 229 -407 238 -420 5 -8 18 -31 28 -50 10 -19 37 -68 61
-108 l43 -72 -28 -38 c-15 -20 -35 -44 -43 -54 -9 -9 -27 -31 -41 -49 -14 -18
-30 -37 -35 -43 -6 -6 -28 -33 -50 -61 -22 -27 -42 -52 -45 -55 -3 -3 -34 -41
-70 -85 -35 -44 -67 -82 -70 -85 -3 -3 -43 -52 -90 -110 -47 -58 -92 -114
-102 -125 -9 -11 -80 -99 -159 -195 -78 -96 -153 -189 -168 -206 -14 -17 -39
-48 -56 -69 -16 -21 -34 -43 -40 -49 -12 -14 -95 -115 -112 -136 -6 -8 -37
-45 -67 -82 l-56 -67 -1085 0 c-597 0 -1084 3 -1082 7 28 52 114 188 120 190
4 2 7 7 7 12 0 4 61 106 136 226 75 121 144 231 153 245 26 44 100 162 237
381 71 114 134 216 139 225 12 21 207 335 272 438 121 192 403 648 403 652 0
2 10 19 23 36 13 18 32 49 42 70 11 20 23 37 27 37 5 0 8 7 8 15 0 8 5 15 10
15 6 0 10 4 10 9 0 4 102 172 226 372 125 200 234 378 244 394 31 54 129 210
140 222 5 7 10 17 10 23 0 22 19 8 43 -32z"/>
</g>
</svg>
